<svg id="Capa_1" enable-background="new 0 0 512 512" height="512" viewBox="0 0 512 512" width="512" xmlns="http://www.w3.org/2000/svg"><g><path d="m502 37h-94.76l-28.341 29.765-17.926-29.765h-253.604l-8.446 27.067-14.36-27.067h-74.563v138.148l19.125 30.35-19.125-3.793v273.295h181.859l13.775-26.448 7.883 13.515h11.263l7.005 12.933h122.512l9.573-21.256 12.952 21.256h125.178v-270.72l-30.011-6.83 20.034-19.646-5.047-17.898 15.024-8.739z" fill="#ffdb85"/><g><path d="m502 485h-125.178c-3.488 0-6.725-1.818-8.54-4.797l-3.083-5.059-1.784 3.962c-1.616 3.587-5.184 5.894-9.118 5.894h-122.512c-3.67 0-7.045-2.01-8.793-5.237l-4.168-7.695h-5.306c-2.769 0-5.376-1.145-7.241-3.102l-5.549 10.654c-1.722 3.307-5.141 5.381-8.869 5.381h-181.859c-5.523 0-10-4.477-10-10v-273.296c0-2.993 1.341-5.829 3.654-7.729 1.453-1.193 3.194-1.938 5.016-2.183l-7.13-11.314c-1.006-1.596-1.54-3.444-1.54-5.331v-138.148c0-5.523 4.477-10 10-10h74.563c3.701 0 7.1 2.044 8.834 5.313l3.123 5.886 1.304-4.178c1.303-4.177 5.17-7.021 9.546-7.021h253.604c3.507 0 6.757 1.837 8.566 4.841l11.16 18.531 19.298-20.268c1.888-1.982 4.505-3.104 7.242-3.104h94.76c5.523 0 10 4.477 10 10v114.167c0 3.561-1.894 6.854-4.972 8.644l-8.323 4.841 2.943 10.437c.992 3.517-.014 7.295-2.623 9.854l-6.956 6.821 12.15 2.765c4.551 1.036 7.781 5.083 7.781 9.75v270.721c0 5.523-4.477 10-10 10zm-119.561-20h109.561v-252.74l-22.23-5.06c-3.567-.812-6.406-3.506-7.402-7.026-.997-3.52.008-7.303 2.62-9.864l15.802-15.497-3.439-12.194c-1.239-4.392.652-9.064 4.597-11.358l10.052-5.846v-98.415h-80.474l-25.385 26.661c-2.151 2.259-5.233 3.387-8.334 3.044-3.101-.34-5.865-2.108-7.474-4.781l-15.011-24.924h-240.598l-6.256 20.046c-1.202 3.853-4.603 6.605-8.621 6.978-4.021.372-7.868-1.706-9.759-5.271l-11.54-21.753h-58.548v125.26l17.585 27.907c2.13 3.38 2.043 7.703-.219 10.995s-6.268 4.92-10.187 4.145l-7.179-1.424v251.117h165.792l10.973-21.067c1.683-3.23 4.988-5.291 8.63-5.378 3.624-.091 7.042 1.812 8.877 4.958l4.99 8.554h5.519c3.67 0 7.045 2.01 8.793 5.237l4.168 7.695h110.092l6.918-15.363c1.524-3.383 4.795-5.645 8.498-5.875 3.707-.227 7.229 1.609 9.16 4.778z" fill="#ffaa64"/></g><g fill="#fff3d6"><path d="m273.723 351.519c-2.903-4.228-9.144-4.228-12.047 0l-15.286 22.262-6.386-9.301c-2.152-3.134-6.778-3.134-8.929 0l-19.666 28.642c-2.467 3.594.105 8.481 4.465 8.481h78.357c5.881 0 9.352-6.594 6.023-11.442z"/><path d="m261.425 157.167h78.357c5.881 0 9.352-6.594 6.023-11.442l-26.532-38.642c-2.903-4.228-9.144-4.228-12.047 0l-15.286 22.262-6.386-9.301c-2.152-3.134-6.778-3.134-8.929 0l-19.666 28.642c-2.466 3.594.107 8.481 4.466 8.481z"/><path d="m134.378 335.145c-2.711 0-5.421-.257-8.057-.763-5.425-1.044-10.666 2.509-11.708 7.933s2.509 10.665 7.933 11.708c3.876.745 7.856 1.123 11.831 1.123 5.523 0 10-4.477 10-10s-4.476-10.001-9.999-10.001z"/><path d="m96.092 243.534c-6.308 4.911-11.55 10.894-15.58 17.782-2.789 4.767-1.186 10.892 3.582 13.681 1.587.929 3.325 1.37 5.041 1.37 3.436 0 6.78-1.772 8.641-4.952 2.742-4.686 6.309-8.757 10.604-12.102 4.358-3.393 5.14-9.676 1.747-14.034-3.395-4.356-9.679-5.138-14.035-1.745z"/><path d="m319.566 294.399c5.432-.998 9.027-6.21 8.029-11.642-1.437-7.82-4.289-15.219-8.478-21.992-2.905-4.697-9.068-6.15-13.765-3.245s-6.149 9.068-3.245 13.765c2.875 4.647 4.832 9.723 5.816 15.084.886 4.821 5.091 8.195 9.824 8.195.6.002 1.209-.052 1.819-.165z"/><path d="m93.159 302.637c-1.28-5.372-6.67-8.689-12.046-7.409-5.372 1.28-8.689 6.673-7.409 12.046 1.852 7.772 5.143 15.026 9.779 21.56 1.95 2.748 5.033 4.214 8.164 4.214 2.001 0 4.022-.599 5.778-1.846 4.504-3.196 5.564-9.438 2.368-13.942-3.147-4.436-5.379-9.355-6.634-14.623z"/><path d="m129.736 240.404c0 5.523 4.477 10 10 10h19.989c5.523 0 10-4.477 10-10s-4.477-10-10-10h-19.989c-5.523 0-10 4.477-10 10z"/><path d="m259.668 250.404h5.008c4.1 0 8.154.562 12.051 1.669.914.26 1.834.383 2.739.383 4.357 0 8.364-2.87 9.614-7.268 1.51-5.312-1.573-10.843-6.885-12.354-5.675-1.613-11.57-2.431-17.519-2.431h-5.008c-5.523 0-10 4.477-10 10s4.478 10.001 10 10.001z"/><path d="m346.264 329.577c-4.378-3.284-8.067-7.3-10.964-11.936-2.926-4.684-9.096-6.106-13.78-3.18-4.683 2.927-6.107 9.097-3.18 13.78 4.209 6.733 9.566 12.565 15.923 17.334 1.799 1.35 3.904 2.001 5.993 2.001 3.04 0 6.043-1.381 8.007-4 3.314-4.417 2.419-10.685-1.999-13.999z"/><path d="m388.064 338.349h-10c-5.523 0-10 4.477-10 10s4.477 10 10 10h10c5.523 0 10-4.477 10-10s-4.477-10-10-10z"/><path d="m189.041 215.879v24.524c0 5.523 4.477 10 10 10h20.65c5.523 0 10-4.477 10-10s-4.477-10-10-10h-10.65v-14.524c0-5.523-4.477-10-10-10s-10 4.477-10 10z"/><path d="m174.095 168.73c4.116 3.62 7.482 7.912 10.004 12.754 1.783 3.423 5.268 5.383 8.877 5.383 1.556 0 3.135-.364 4.611-1.133 4.898-2.551 6.801-8.59 4.25-13.488-3.667-7.041-8.557-13.277-14.534-18.534-4.147-3.647-10.465-3.243-14.113.904-3.647 4.148-3.242 10.467.905 14.114z"/><path d="m199.041 265.879c-5.523 0-10 4.477-10 10v4.603c0 4.364-.514 8.704-1.528 12.899-1.297 5.368 2.003 10.772 7.371 12.069.79.191 1.579.282 2.357.282 4.511 0 8.605-3.075 9.712-7.653 1.385-5.732 2.088-11.653 2.088-17.598v-4.603c0-5.522-4.477-9.999-10-9.999z"/><path d="m170.19 321.781c-4.279 3.714-9.076 6.726-14.256 8.952-5.075 2.18-7.421 8.061-5.241 13.136 1.627 3.787 5.316 6.055 9.193 6.055 1.317 0 2.656-.262 3.942-.814 7.08-3.042 13.631-7.154 19.471-12.223 4.171-3.62 4.618-9.936.998-14.107-3.62-4.172-9.936-4.619-14.107-.999z"/><path d="m94 147.79c0-5.523-4.477-10-10-10h-20c-5.523 0-10 4.477-10 10s4.477 10 10 10h20c5.523 0 10-4.477 10-10z"/><path d="m124 157.79h20c5.523 0 10-4.477 10-10s-4.477-10-10-10h-20c-5.523 0-10 4.477-10 10s4.477 10 10 10z"/></g><g><path d="m429.485 309.486-15.193 15.193-15.193-15.193c-2.247-2.247-5.89-2.247-8.137 0l-15.058 15.058c-2.247 2.247-2.247 5.89 0 8.137l15.193 15.193-15.193 15.193c-2.247 2.247-2.247 5.89 0 8.137l15.058 15.058c2.247 2.247 5.89 2.247 8.137 0l15.193-15.193 15.193 15.193c2.247 2.247 5.89 2.247 8.137 0l15.058-15.058c2.247-2.247 2.247-5.89 0-8.137l-15.193-15.193 15.193-15.193c2.247-2.247 2.247-5.89 0-8.137l-15.058-15.058c-2.247-2.247-5.89-2.247-8.137 0z" fill="#ff9eb2"/></g></g></svg>