<svg id="Capa_1" enable-background="new 0 0 512 512" height="512" viewBox="0 0 512 512" width="512" xmlns="http://www.w3.org/2000/svg"><g><path d="m273.723 351.519c-2.903-4.228-9.144-4.228-12.047 0l-15.286 22.262-6.386-9.301c-2.152-3.134-6.778-3.134-8.929 0l-19.666 28.642c-2.467 3.594.105 8.481 4.465 8.481h78.357c5.881 0 9.352-6.594 6.023-11.442z"/><path d="m261.425 157.167h78.357c5.881 0 9.352-6.594 6.023-11.442l-26.532-38.642c-2.903-4.228-9.144-4.228-12.047 0l-15.286 22.262-6.386-9.301c-2.152-3.134-6.778-3.134-8.929 0l-19.666 28.642c-2.466 3.594.107 8.481 4.466 8.481z"/><path d="m512 151.167v-114.167c0-5.523-4.477-10-10-10h-94.76c-2.737 0-5.354 1.122-7.242 3.104l-19.298 20.268-11.16-18.531c-1.81-3.004-5.06-4.841-8.567-4.841h-253.604c-4.375 0-8.243 2.844-9.546 7.021l-1.304 4.178-3.123-5.886c-1.733-3.269-5.132-5.313-8.833-5.313h-74.563c-5.523 0-10 4.477-10 10v138.148c0 1.887.534 3.735 1.54 5.331l7.13 11.314c-1.822.245-3.562.99-5.016 2.183-2.313 1.899-3.654 4.735-3.654 7.729v273.295c0 5.523 4.477 10 10 10h181.859c3.728 0 7.147-2.074 8.869-5.381l5.549-10.654c1.865 1.957 4.472 3.102 7.241 3.102h5.306l4.168 7.695c1.748 3.227 5.123 5.237 8.793 5.237h122.512c3.934 0 7.502-2.307 9.118-5.894l1.784-3.962 3.083 5.059c1.815 2.979 5.051 4.797 8.54 4.797h125.178c5.523 0 10-4.477 10-10v-270.719c0-4.668-3.229-8.715-7.781-9.75l-12.15-2.765 6.956-6.821c2.609-2.559 3.615-6.337 2.623-9.854l-2.943-10.437 8.323-4.841c3.078-1.791 4.972-5.084 4.972-8.645zm-20-5.752-10.052 5.847c-3.944 2.294-5.835 6.967-4.597 11.358l3.439 12.194-15.802 15.497c-2.612 2.561-3.617 6.344-2.62 9.864s3.835 6.215 7.402 7.026l22.23 5.06v252.739h-109.561l-10.029-16.459c-1.93-3.168-5.453-5.004-9.16-4.778-3.703.23-6.974 2.492-8.498 5.875l-6.919 15.362h-110.092l-4.168-7.695c-1.748-3.227-5.123-5.237-8.793-5.237h-5.519l-4.99-8.554c-1.835-3.146-5.253-5.049-8.877-4.958-3.642.087-6.947 2.147-8.63 5.378l-10.972 21.066h-165.792v-251.117l7.179 1.424c3.919.775 7.924-.853 10.187-4.145s2.349-7.615.219-10.995l-17.585-27.907v-125.26h58.548l11.541 21.754c1.891 3.565 5.738 5.642 9.759 5.271 4.019-.373 7.419-3.125 8.621-6.978l6.255-20.047h240.598l15.01 24.924c1.609 2.672 4.374 4.44 7.474 4.781 3.102.343 6.183-.785 8.334-3.044l25.386-26.661h80.474z"/><path d="m390.961 309.486-15.058 15.058c-2.247 2.247-2.247 5.89 0 8.137l5.667 5.667h-3.506c-5.523 0-10 4.477-10 10s4.477 10 10 10h2.558l-4.719 4.719c-2.247 2.247-2.247 5.89 0 8.137l15.058 15.058c2.247 2.247 5.89 2.247 8.137 0l15.193-15.193 15.193 15.193c2.247 2.247 5.89 2.247 8.137 0l15.058-15.058c2.247-2.247 2.247-5.89 0-8.137l-15.193-15.193 15.193-15.193c2.247-2.247 2.247-5.89 0-8.137l-15.058-15.058c-2.247-2.247-5.89-2.247-8.137 0l-15.193 15.193-15.193-15.193c-2.246-2.247-5.89-2.247-8.137 0z"/><path d="m134.378 335.145c-2.712 0-5.423-.257-8.057-.763-5.425-1.044-10.666 2.509-11.708 7.933s2.509 10.665 7.933 11.708c3.875.745 7.855 1.122 11.831 1.122 5.523 0 10-4.477 10-10s-4.476-10-9.999-10z"/><path d="m93.159 302.637c-1.28-5.372-6.67-8.689-12.046-7.409-5.372 1.28-8.689 6.673-7.409 12.046 1.852 7.772 5.143 15.026 9.779 21.56 1.95 2.748 5.033 4.214 8.164 4.214 2.001 0 4.022-.599 5.778-1.846 4.504-3.196 5.564-9.438 2.368-13.942-3.147-4.436-5.379-9.355-6.634-14.623z"/><path d="m96.092 243.534c-6.308 4.911-11.55 10.894-15.58 17.782-2.789 4.767-1.186 10.892 3.582 13.681 1.587.929 3.325 1.37 5.041 1.37 3.436 0 6.78-1.772 8.641-4.952 2.742-4.686 6.309-8.757 10.604-12.101 4.358-3.393 5.14-9.676 1.748-14.034-3.395-4.356-9.678-5.139-14.036-1.746z"/><path d="m319.567 294.399c5.432-.999 9.026-6.211 8.028-11.643-1.437-7.82-4.29-15.218-8.478-21.991-2.905-4.697-9.068-6.15-13.765-3.245s-6.149 9.068-3.245 13.765c2.875 4.647 4.832 9.723 5.817 15.085.886 4.821 5.091 8.194 9.824 8.194.6.002 1.209-.052 1.819-.165z"/><path d="m346.264 329.578c-4.378-3.284-8.067-7.3-10.964-11.936-2.926-4.684-9.096-6.105-13.78-3.18-4.683 2.927-6.107 9.097-3.18 13.78 4.209 6.733 9.566 12.565 15.923 17.334 1.799 1.35 3.904 2.001 5.993 2.001 3.04 0 6.043-1.381 8.007-4 3.314-4.417 2.419-10.685-1.999-13.999z"/><path d="m259.668 250.404h5.008c4.1 0 8.154.562 12.051 1.669.914.26 1.834.383 2.739.383 4.357 0 8.364-2.87 9.614-7.268 1.51-5.312-1.573-10.843-6.885-12.354-5.675-1.613-11.57-2.431-17.519-2.431h-5.008c-5.523 0-10 4.477-10 10s4.478 10.001 10 10.001z"/><path d="m129.736 240.404c0 5.523 4.477 10 10 10h19.988c5.523 0 10-4.477 10-10s-4.477-10-10-10h-19.988c-5.523 0-10 4.477-10 10z"/><path d="m174.095 168.73c4.116 3.62 7.482 7.912 10.004 12.754 1.783 3.423 5.268 5.383 8.877 5.383 1.556 0 3.135-.364 4.611-1.133 4.898-2.551 6.801-8.59 4.25-13.488-3.667-7.041-8.557-13.277-14.534-18.534-4.147-3.647-10.465-3.243-14.113.904-3.647 4.148-3.242 10.467.905 14.114z"/><path d="m189.041 215.879v24.524c0 5.523 4.477 10 10 10h20.65c5.523 0 10-4.477 10-10s-4.477-10-10-10h-10.65v-14.524c0-5.523-4.477-10-10-10s-10 4.477-10 10z"/><path d="m94 147.79c0-5.523-4.477-10-10-10h-20c-5.523 0-10 4.477-10 10s4.477 10 10 10h20c5.523 0 10-4.477 10-10z"/><path d="m170.19 321.781c-4.279 3.714-9.076 6.726-14.256 8.952-5.075 2.18-7.421 8.061-5.241 13.136 1.627 3.787 5.316 6.055 9.193 6.055 1.317 0 2.656-.262 3.942-.814 7.08-3.042 13.631-7.154 19.471-12.223 4.171-3.62 4.618-9.936.998-14.107-3.62-4.172-9.936-4.619-14.107-.999z"/><path d="m199.041 265.879c-5.523 0-10 4.477-10 10v4.603c0 4.364-.514 8.704-1.528 12.899-1.297 5.368 2.003 10.772 7.371 12.069.79.191 1.579.282 2.357.282 4.511 0 8.605-3.075 9.712-7.653 1.385-5.732 2.088-11.653 2.088-17.598v-4.603c0-5.522-4.477-9.999-10-9.999z"/><path d="m124 157.79h20c5.523 0 10-4.477 10-10s-4.477-10-10-10h-20c-5.523 0-10 4.477-10 10s4.477 10 10 10z"/></g></svg>