<?xml version="1.0" encoding="iso-8859-1"?>
<!-- Generator: Adobe Illustrator 19.0.0, SVG Export Plug-In . SVG Version: 6.00 Build 0)  -->
<svg version="1.1" id="Capa_1" xmlns="http://www.w3.org/2000/svg" xmlns:xlink="http://www.w3.org/1999/xlink" x="0px" y="0px"
	 viewBox="0 0 512 512" style="enable-background:new 0 0 512 512;" xml:space="preserve">
<g>
	<g>
		<path d="M424.484,90.78c-1.858-1.858-4.436-2.927-7.064-2.927c-2.628,0-5.205,1.069-7.064,2.927
			c-1.857,1.858-2.927,4.436-2.927,7.064s1.069,5.205,2.927,7.064c1.858,1.858,4.436,2.927,7.064,2.927
			c2.628,0,5.205-1.069,7.064-2.927c1.857-1.858,2.927-4.436,2.927-7.064S426.343,92.638,424.484,90.78z"/>
	</g>
</g>
<g>
	<g>
		<path d="M501.544,491.786H379.628c4.373-5.812,7.509-12.603,9.013-19.982h44.965c5.517,0,9.991-4.473,9.991-9.991v-89.694
			l50.018,77.491c1.91,2.961,5.123,4.574,8.403,4.574c1.855,0,3.733-0.516,5.408-1.598c4.637-2.992,5.969-9.177,2.976-13.812
			l-63.804-98.849h54.761c3.658,0,7.024-1.999,8.773-5.211c1.75-3.212,1.605-7.124-0.38-10.198l-85.496-132.457h47.527
			c3.658,0,7.024-1.999,8.773-5.211c1.75-3.212,1.605-7.124-0.38-10.198l-35.582-55.127c-2.992-4.637-9.177-5.97-13.811-2.976
			c-4.637,2.992-5.969,9.177-2.976,13.812l25.636,39.718h-47.527c-3.658,0-7.024,1.999-8.773,5.211
			c-1.75,3.212-1.605,7.124,0.38,10.198l85.496,132.457h-39.912c-5.082-52.63-49.557-93.915-103.496-93.915H319.65l-9.63-16.68
			l14.174-21.842c3.003-4.629,1.686-10.816-2.942-13.82c-4.631-3.004-10.816-1.686-13.819,2.942l-8.627,13.294l-19.848-34.379
			l81.909-126.898l27.466,42.551c2.991,4.636,9.175,5.968,13.811,2.976c4.637-2.992,5.969-9.177,2.976-13.813l-35.86-55.554
			c-1.839-2.851-5-4.573-8.393-4.573c-3.393,0-6.555,1.722-8.393,4.573l-84.743,131.291l-23.308-40.37
			c-1.784-3.091-5.083-4.995-8.652-4.995c-3.569,0-6.868,1.904-8.652,4.995l-26.932,46.645c-6.626-4.381-14.38-7.187-22.729-7.861
			c-11.561-20.535-33.386-33.484-57.273-33.484c-24.789,0-47.043,13.797-58.234,35.234c-4.359-1.259-8.896-1.908-13.461-1.908
			C21.751,134.351,0,156.103,0,182.839c0,5.518,4.474,9.991,9.991,9.991h161.062l-19.167,33.198h-47.901
			C46.648,226.027,0,272.676,0,330.013v10.03c0,0.003,0,0.007,0,0.01v121.759c0,5.518,4.474,9.991,9.991,9.991h44.965
			c1.504,7.379,4.641,14.17,9.013,19.982H26.756c-5.517,0-9.991,4.473-9.991,9.991s4.474,9.991,9.991,9.991h155.797
			c5.517,0,9.991-4.473,9.991-9.991s-4.474-9.991-9.991-9.991h-38.711c4.373-5.812,7.509-12.603,9.013-19.982h137.887
			c1.504,7.379,4.641,14.17,9.013,19.982h-67.295c-5.517,0-9.991,4.473-9.991,9.991s4.474,9.991,9.991,9.991h269.086
			c5.517,0,9.991-4.473,9.991-9.991S507.061,491.786,501.544,491.786z M323.706,246.009h15.906c8.674,0,17.044,1.323,24.922,3.775
			l-40.828,40.828V246.009z M323.706,318.871l60.194-60.193c23.82,14.843,39.715,41.263,39.715,71.336v15.905h-66.893l24.964-24.964
			c3.901-3.901,3.901-10.228,0-14.13c-3.902-3.901-10.227-3.901-14.13,0l-37.372,37.372c-0.531,0.533-0.985,1.112-1.372,1.722
			h-5.106V318.871z M303.724,246.01v68.718c0,0.003,0,0.007,0,0.01v31.182h-62.588v-0.001l16.17-16.17
			c3.901-3.901,3.901-10.228,0-14.129c-3.902-3.901-10.227-3.901-14.13,0l-30.299,30.299H179.91c0.244-0.202,0.482-0.414,0.71-0.642
			l58.903-58.902c3.901-3.902,3.901-10.228,0-14.13c-3.902-3.901-10.227-3.9-14.13,0l-45.556,45.56V246.01H303.724z
			 M214.675,157.236l21.093-36.534l60.809,105.324H174.959l19.166-33.197h17.894c5.517,0,9.991-4.473,9.991-9.991
			C222.009,173.446,219.318,164.673,214.675,157.236z M21.789,172.848c4.055-10.806,14.494-18.515,26.699-18.515
			c4.865,0,9.672,1.252,13.9,3.622c2.603,1.458,5.719,1.675,8.499,0.597c2.78-1.08,4.933-3.345,5.87-6.176
			c6.207-18.762,23.659-31.369,43.426-31.369c18.165,0,34.617,10.761,41.912,27.416c1.678,3.829,5.572,6.211,9.733,5.966
			c0.561-0.033,1.124-0.056,1.693-0.056c12.205,0,22.642,7.709,26.699,18.515H21.789z M19.982,344.188l39.036-39.036
			c3.901-3.901,3.901-10.228,0-14.13c-3.902-3.901-10.227-3.901-14.13,0l-23.439,23.44c7.317-38.913,41.532-68.453,82.537-68.453
			h15.906v27.374l-72.535,72.535H19.982V344.188z M119.891,301.643v44.276H75.615L119.891,301.643z M103.906,491.786
			c-16.527,0-29.973-13.446-29.973-29.973s13.446-29.973,29.973-29.973s29.973,13.446,29.973,29.973
			S120.433,491.786,103.906,491.786z M339.691,491.786c-16.527,0-29.973-13.446-29.973-29.973s13.446-29.973,29.973-29.973
			s29.973,13.446,29.973,29.973S356.218,491.786,339.691,491.786z M339.691,411.858c-24.125,0-44.308,17.189-48.95,39.964H152.855
			c-4.642-22.774-24.824-39.964-48.95-39.964c-24.125,0-44.308,17.189-48.95,39.964H19.982V365.9h109.9
			c5.517,0,9.991-4.473,9.991-9.991v-109.9h19.982v109.9c0,5.518,4.474,9.991,9.991,9.991h253.769v85.922h-34.974
			C383.999,429.048,363.817,411.858,339.691,411.858z"/>
	</g>
</g>
<g>
	<g>
		<path d="M240.781,387.88h-70.936c-5.517,0-9.991,4.473-9.991,9.991c0,5.518,4.474,9.991,9.991,9.991h70.936
			c5.517,0,9.991-4.473,9.991-9.991C250.772,392.353,246.298,387.88,240.781,387.88z"/>
	</g>
</g>
<g>
	<g>
		<path d="M284.81,390.807c-1.857-1.858-4.435-2.927-7.063-2.927s-5.205,1.069-7.064,2.927c-1.858,1.858-2.927,4.436-2.927,7.064
			c0,2.638,1.068,5.205,2.927,7.064s4.436,2.927,7.064,2.927s5.205-1.069,7.063-2.927c1.858-1.858,2.928-4.436,2.928-7.064
			C287.739,395.243,286.67,392.666,284.81,390.807z"/>
	</g>
</g>
<g>
</g>
<g>
</g>
<g>
</g>
<g>
</g>
<g>
</g>
<g>
</g>
<g>
</g>
<g>
</g>
<g>
</g>
<g>
</g>
<g>
</g>
<g>
</g>
<g>
</g>
<g>
</g>
<g>
</g>
</svg>
